<?xml version="1.0" encoding="UTF-8" standalone="no"?>
<!-- Created with Inkscape (http://www.inkscape.org/) -->

<svg
   xmlns:dc="http://purl.org/dc/elements/1.1/"
   xmlns:cc="http://creativecommons.org/ns#"
   xmlns:rdf="http://www.w3.org/1999/02/22-rdf-syntax-ns#"
   xmlns:svg="http://www.w3.org/2000/svg"
   xmlns="http://www.w3.org/2000/svg"
   xmlns:xlink="http://www.w3.org/1999/xlink"
   xmlns:sodipodi="http://sodipodi.sourceforge.net/DTD/sodipodi-0.dtd"
   xmlns:inkscape="http://www.inkscape.org/namespaces/inkscape"
   width="64"
   height="64"
   id="svg2"
   version="1.1"
   inkscape:version="0.47 r22583"
   sodipodi:docname="eau.svg">
  <defs
     id="defs4">
    <linearGradient
       id="linearGradient3601">
      <stop
         style="stop-color:#6880d4;stop-opacity:1;"
         offset="0"
         id="stop3603" />
      <stop
         style="stop-color:#24387f;stop-opacity:1;"
         offset="1"
         id="stop3605" />
    </linearGradient>
    <linearGradient
       id="linearGradient3728">
      <stop
         style="stop-color:#ffffff;stop-opacity:1;"
         offset="0"
         id="stop3730" />
      <stop
         style="stop-color:#ffffff;stop-opacity:0;"
         offset="1"
         id="stop3732" />
    </linearGradient>
    <inkscape:perspective
       sodipodi:type="inkscape:persp3d"
       inkscape:vp_x="0 : 526.18109 : 1"
       inkscape:vp_y="0 : 1000 : 0"
       inkscape:vp_z="744.09448 : 526.18109 : 1"
       inkscape:persp3d-origin="372.04724 : 350.78739 : 1"
       id="perspective10" />
    <inkscape:perspective
       id="perspective3598"
       inkscape:persp3d-origin="0.5 : 0.33333333 : 1"
       inkscape:vp_z="1 : 0.5 : 1"
       inkscape:vp_y="0 : 1000 : 0"
       inkscape:vp_x="0 : 0.5 : 1"
       sodipodi:type="inkscape:persp3d" />
    <inkscape:perspective
       id="perspective3629"
       inkscape:persp3d-origin="0.5 : 0.33333333 : 1"
       inkscape:vp_z="1 : 0.5 : 1"
       inkscape:vp_y="0 : 1000 : 0"
       inkscape:vp_x="0 : 0.5 : 1"
       sodipodi:type="inkscape:persp3d" />
    <inkscape:perspective
       id="perspective3655"
       inkscape:persp3d-origin="0.5 : 0.33333333 : 1"
       inkscape:vp_z="1 : 0.5 : 1"
       inkscape:vp_y="0 : 1000 : 0"
       inkscape:vp_x="0 : 0.5 : 1"
       sodipodi:type="inkscape:persp3d" />
    <inkscape:perspective
       id="perspective3683"
       inkscape:persp3d-origin="0.5 : 0.33333333 : 1"
       inkscape:vp_z="1 : 0.5 : 1"
       inkscape:vp_y="0 : 1000 : 0"
       inkscape:vp_x="0 : 0.5 : 1"
       sodipodi:type="inkscape:persp3d" />
    <inkscape:perspective
       id="perspective3711"
       inkscape:persp3d-origin="0.5 : 0.33333333 : 1"
       inkscape:vp_z="1 : 0.5 : 1"
       inkscape:vp_y="0 : 1000 : 0"
       inkscape:vp_x="0 : 0.5 : 1"
       sodipodi:type="inkscape:persp3d" />
    <linearGradient
       inkscape:collect="always"
       xlink:href="#linearGradient3728"
       id="linearGradient3734"
       x1="-61.59375"
       y1="60.71875"
       x2="-17.78125"
       y2="46.324078"
       gradientUnits="userSpaceOnUse"
       gradientTransform="translate(81.84375,959.64341)" />
    <linearGradient
       inkscape:collect="always"
       xlink:href="#linearGradient3601"
       id="linearGradient3607"
       x1="32"
       y1="1028.5531"
       x2="32"
       y2="1052.2684"
       gradientUnits="userSpaceOnUse" />
  </defs>
  <sodipodi:namedview
     id="base"
     pagecolor="#ffffff"
     bordercolor="#666666"
     borderopacity="1.0"
     inkscape:pageopacity="0.0"
     inkscape:pageshadow="2"
     inkscape:zoom="4"
     inkscape:cx="12.339118"
     inkscape:cy="15.636277"
     inkscape:document-units="px"
     inkscape:current-layer="layer1"
     showgrid="false"
     inkscape:window-width="1278"
     inkscape:window-height="764"
     inkscape:window-x="0"
     inkscape:window-y="16"
     inkscape:window-maximized="1" />
  <metadata
     id="metadata7">
    <rdf:RDF>
      <cc:Work
         rdf:about="">
        <dc:format>image/svg+xml</dc:format>
        <dc:type
           rdf:resource="http://purl.org/dc/dcmitype/StillImage" />
        <dc:title></dc:title>
      </cc:Work>
    </rdf:RDF>
  </metadata>
  <g
     inkscape:label="Calque 1"
     inkscape:groupmode="layer"
     id="layer1"
     transform="translate(0,-988.36218)">
    <rect
       style="color:#000000;fill:#4b4b4b;fill-opacity:1;fill-rule:nonzero;stroke:#000000;stroke-width:0.10000000000000001;stroke-linecap:butt;stroke-linejoin:miter;stroke-miterlimit:4;stroke-opacity:1;stroke-dasharray:none;stroke-dashoffset:0;marker:none;visibility:visible;display:inline;overflow:visible;enable-background:accumulate"
       id="rect2816-2"
       width="63.799999"
       height="63.799999"
       x="0.10000038"
       y="988.46216"
       ry="8.125001"
       inkscape:transform-center-x="-70.714286"
       inkscape:transform-center-y="19.107143" />
    <path
       style="color:#000000;fill:#ffffff;fill-opacity:1;fill-rule:nonzero;stroke:#000000;stroke-width:0;stroke-linecap:butt;stroke-linejoin:miter;stroke-miterlimit:4;stroke-opacity:1;stroke-dasharray:none;stroke-dashoffset:0;marker:none;visibility:visible;display:inline;overflow:visible;enable-background:accumulate"
       d="m 0.09375,1014.8398 0,18.4064 c 0,4.5012 3.623749,8.125 8.125,8.125 l 47.5625,0 c 4.501251,0 8.125,-3.6238 8.125,-8.125 l 0,-17.9688 -0.15625,-0.062 c -0.400957,1.1983 -1.230239,0.6832 -1.96875,0.5312 -4.629153,-1.3688 -9.600857,-2.3683 -20.1875,2.6874 -4.141101,1.2816 -11.776423,-1.5583 -20.53125,-5.7187 -3.845907,-1.6494 -7.81525,-3.2063 -20.96875,2.125 z"
       id="path3619-5-7-3"
       sodipodi:nodetypes="ccccccccccc" />
    <path
       style="color:#000000;fill:#6880d4;fill-opacity:1;fill-rule:nonzero;stroke:#000000;stroke-width:0;stroke-linecap:butt;stroke-linejoin:miter;stroke-miterlimit:4;stroke-opacity:1;stroke-dasharray:none;stroke-dashoffset:0;marker:none;visibility:visible;display:inline;overflow:visible;enable-background:accumulate"
       d="m 0.09375,1017.0379 0,18.4063 c 0,4.5012 3.6237495,8.125 8.125,8.125 l 47.5625,0 c 4.501251,0 8.125,-3.6238 8.125,-8.125 l 0,-17.9688 -0.15625,-0.062 c -0.400957,1.1983 -1.230239,0.6832 -1.96875,0.5313 -4.629153,-1.3689 -9.600857,-2.3684 -20.1875,2.6875 -4.141101,1.2815 -11.776423,-1.5584 -20.53125,-5.7188 -3.845907,-1.6494 -7.81525,-3.2062 -20.96875,2.125 z"
       id="path3619-4-0"
       sodipodi:nodetypes="ccccccccccc" />
    <path
       style="color:#000000;fill:#ffffff;fill-opacity:1;fill-rule:nonzero;stroke:#000000;stroke-width:0;stroke-linecap:butt;stroke-linejoin:miter;stroke-miterlimit:4;stroke-opacity:1;stroke-dasharray:none;stroke-dashoffset:0;marker:none;visibility:visible;display:inline;overflow:visible;enable-background:accumulate"
       d="m 0.09375,1019.1398 0,18.4064 c 0,4.5012 3.623749,8.125 8.125,8.125 l 47.5625,0 c 4.501251,0 8.125,-3.6238 8.125,-8.125 l 0,-17.9688 -0.15625,-0.062 c -0.400957,1.1983 -1.230239,0.6832 -1.96875,0.5312 -4.629153,-1.3688 -9.600857,-2.3683 -20.1875,2.6874 -4.141101,1.2815 -11.776423,-1.5583 -20.53125,-5.7187 -3.845907,-1.6494 -7.81525,-3.2063 -20.96875,2.125 z"
       id="path3619-5-7"
       sodipodi:nodetypes="ccccccccccc" />
    <path
       style="color:#000000;fill:#6880d4;fill-opacity:1;fill-rule:nonzero;stroke:#000000;stroke-width:0;stroke-linecap:butt;stroke-linejoin:miter;stroke-miterlimit:4;stroke-opacity:1;stroke-dasharray:none;stroke-dashoffset:0;marker:none;visibility:visible;display:inline;overflow:visible;enable-background:accumulate"
       d="m 0.09375,1021.3379 0,18.4063 c 0,4.5012 3.6237495,8.125 8.125,8.125 l 47.5625,0 c 4.501251,0 8.125,-3.6238 8.125,-8.125 l 0,-17.9688 -0.15625,-0.062 c -0.400957,1.1983 -1.230239,0.6832 -1.96875,0.5313 -4.629153,-1.3689 -9.600857,-2.3684 -20.1875,2.6875 -4.141101,1.2815 -11.776423,-1.5584 -20.53125,-5.7188 -3.845907,-1.6494 -7.81525,-3.2062 -20.96875,2.125 z"
       id="path3619-4"
       sodipodi:nodetypes="ccccccccccc" />
    <path
       style="color:#000000;fill:#ffffff;fill-opacity:1;fill-rule:nonzero;stroke:#000000;stroke-width:0;stroke-linecap:butt;stroke-linejoin:miter;stroke-miterlimit:4;stroke-opacity:1;stroke-dasharray:none;stroke-dashoffset:0;marker:none;visibility:visible;display:inline;overflow:visible;enable-background:accumulate"
       d="m 0.094,1023.5389 0,18.4063 c 0,4.5012 3.623749,8.125 8.125,8.125 l 47.5625,0 c 4.501251,0 8.125,-3.6238 8.125,-8.125 l 0,-17.9688 -0.15625,-0.062 c -0.400957,1.1983 -1.230239,0.6832 -1.96875,0.5312 -4.629153,-1.3688 -9.600857,-2.3683 -20.1875,2.6875 -4.141101,1.2815 -11.776423,-1.5584 -20.53125,-5.7187 -3.845907,-1.6494 -7.81525,-3.2063 -20.96875,2.125 z"
       id="path3619-5"
       sodipodi:nodetypes="ccccccccccc" />
    <path
       style="color:#000000;fill:url(#linearGradient3607);fill-opacity:1;fill-rule:nonzero;stroke:#000000;stroke-width:0;stroke-linecap:butt;stroke-linejoin:miter;stroke-miterlimit:4;stroke-opacity:1;stroke-dasharray:none;stroke-dashoffset:0;marker:none;visibility:visible;display:inline;overflow:visible;enable-background:accumulate"
       d="m 0.09375,1025.7372 0,18.4062 c 0,4.5013 3.6237495,8.125 8.125,8.125 l 47.5625,0 c 4.501251,0 8.125,-3.6237 8.125,-8.125 l 0,-17.9687 -0.15625,-0.062 c -0.400957,1.1982 -1.230239,0.6832 -1.96875,0.5312 -4.629153,-1.3689 -9.600857,-2.3683 -20.1875,2.6875 -4.141101,1.2815 -11.776423,-1.5584 -20.53125,-5.7187 -3.845907,-1.6494 -7.81525,-3.2063 -20.96875,2.125 z"
       id="path3619"
       sodipodi:nodetypes="ccccccccccc" />
  </g>
</svg>
