/* XPM */
static char *ptb[] = {
/* columns rows colors chars-per-pixel */
"32 32 83 1",
"  c #1C1202",
". c #211503",
"X c #2A1B04",
"o c #311F04",
"O c #352205",
"+ c #3B2605",
"@ c #3E2806",
"# c #352708",
"$ c #3D2C0A",
"% c #3C3814",
"& c #432B07",
"* c #482E07",
"= c #462E08",
"- c #482F08",
"; c #43330D",
": c #4C3209",
"> c #52350A",
", c #56390B",
"< c #5B3C0C",
"1 c #413711",
"2 c #403D17",
"3 c #3E451E",
"4 c #454A1E",
"5 c #504517",
"6 c #5B4212",
"7 c #5D4916",
"8 c #584A18",
"9 c #5E521D",
"0 c #62420F",
"q c #654511",
"w c #684711",
"e c #6C4A13",
"r c #654E18",
"t c #714E15",
"y c #63561E",
"u c #69551C",
"i c #67581F",
"p c #715419",
"a c #4C4F20",
"s c #445326",
"d c #4B5324",
"f c #4E5D2B",
"g c #535121",
"h c #5C5D26",
"j c #625D24",
"k c #695A20",
"l c #5D662D",
"z c #476433",
"x c #496533",
"c c #4C6C37",
"v c #4B6E39",
"b c #526A34",
"n c #5A6930",
"m c #4E723C",
"M c #5F7034",
"N c #56753B",
"B c #5B7A3C",
"V c #65652A",
"C c #61692E",
"Z c #69692B",
"A c #666D30",
"S c #647335",
"D c #667A3A",
"F c #517B41",
"G c #5C7E40",
"H c #62803F",
"J c #518146",
"K c #5C8344",
"L c #53874A",
"P c #52884B",
"I c #5B8E4C",
"U c #5D924E",
"Y c #5A9452",
"T c #5D9B56",
"R c #648341",
"E c #608846",
"W c #638C49",
"Q c #62944F",
"! c #609651",
"~ c #619E56",
"^ c #609F58",
"/ c #61A159",
"( c None",
/* pixels */
"(((((((X+=--::-:::::--=+X(((((((",
"(((((+,,<<<<jCr<<66<<<<<,,+(((((",
"((((>,,<<<j!~^lq00q000<<<<,>((((",
"(((>,<<6hS^T~cqqwwwwqq00<<<,,(((",
"((>,,<rR//PFFDRRDSkeewq0q<<<,>((",
"(+,<9E/T/IK/^///^^^Zeukrqq<<<,$(",
"(,,h^^/cG///////////^///Eq0<<,,(",
"X,<~/YfqW///////////^///Fq0q<<,X",
"+,<mf<qA^///////////^TFgqq00<,,&",
"=,<<0qj^////////////^lteeqq00<,-",
"-,<qqqW/////////////^!ptewq00<,-",
"-<<<qq^///////////////Dtewqq0<<-",
"-<<<qq^////////////////Dewq6<<,-",
"-,<<qj//////////////////Wjkq0<,-",
"=,<<<A^////////////////////^S,<-",
"=>,<<C^/////////////////////Th,-",
"=>,,<7~//////////////////////B>=",
"&>,,,<Q//////////////////////G>=",
"@>,,,,~/////////////////////^d>=",
"&::>,8/////////////////////^x>-&",
"@:>>>n////////////////^^/TL4>>:&",
"#::::U//////////////^/~Lva:::--@",
"+**:5^//////////////d1;->::>---@",
"O&**a^/////////////Y>>>>::>--==o",
" =&==;xY///////////N::::::**=&&.",
"(&&&&==;sJ/////////b:::*--=&&&&(",
"(X&&&&==&*%cT//////N**===&&&&&X(",
"((+@+&@&=&&&$sJ^///U*&&&&&@@@@((",
"(((+++&+@&&&&&&%xI//b&@&@@@@+(((",
"((((O+++++@@@@@@&+3vY;@++++O((((",
"(((((X+++++++@++++#@#+O+O+X(((((",
"((((((( XXoooOoooooOoOXX ((((((("
};
