<?xml version="1.0" encoding="UTF-8" standalone="no"?>
<!-- Created with Inkscape (http://www.inkscape.org/) -->

<svg
   xmlns:dc="http://purl.org/dc/elements/1.1/"
   xmlns:cc="http://creativecommons.org/ns#"
   xmlns:rdf="http://www.w3.org/1999/02/22-rdf-syntax-ns#"
   xmlns:svg="http://www.w3.org/2000/svg"
   xmlns="http://www.w3.org/2000/svg"
   xmlns:xlink="http://www.w3.org/1999/xlink"
   xmlns:sodipodi="http://sodipodi.sourceforge.net/DTD/sodipodi-0.dtd"
   xmlns:inkscape="http://www.inkscape.org/namespaces/inkscape"
   width="400"
   height="400"
   id="svg3746"
   version="1.1"
   inkscape:version="0.47 r22583"
   sodipodi:docname="logo-plee-hitchcock-App2.1.svg"
   inkscape:export-filename="H:\Documents and Settings\Romain\Bureau\Logo Plee SVG\logo-plee-hitchcock-App2.png"
   inkscape:export-xdpi="90"
   inkscape:export-ydpi="90">
  <defs
     id="defs3748">
    <linearGradient
       id="linearGradient3605">
      <stop
         id="stop3607"
         offset="0"
         style="stop-color:#875f1d;stop-opacity:1;" />
      <stop
         style="stop-color:#57390b;stop-opacity:1;"
         offset="0.40120992"
         id="stop3609" />
      <stop
         id="stop3611"
         offset="1"
         style="stop-color:#201300;stop-opacity:1;" />
    </linearGradient>
    <inkscape:perspective
       sodipodi:type="inkscape:persp3d"
       inkscape:vp_x="0 : 526.18109 : 1"
       inkscape:vp_y="0 : 1000 : 0"
       inkscape:vp_z="744.09448 : 526.18109 : 1"
       inkscape:persp3d-origin="372.04724 : 350.78739 : 1"
       id="perspective3754" />
    <inkscape:perspective
       id="perspective3764"
       inkscape:persp3d-origin="0.5 : 0.33333333 : 1"
       inkscape:vp_z="1 : 0.5 : 1"
       inkscape:vp_y="0 : 1000 : 0"
       inkscape:vp_x="0 : 0.5 : 1"
       sodipodi:type="inkscape:persp3d" />
    <radialGradient
       inkscape:collect="always"
       xlink:href="#linearGradient3632"
       id="radialGradient3722"
       gradientUnits="userSpaceOnUse"
       gradientTransform="matrix(2.0167154,-9.0593355e-8,8.2233578e-8,1.5186802,-3050.0449,878.03737)"
       cx="1583.6582"
       cy="-349.33905"
       fx="1583.6582"
       fy="-349.33905"
       r="316.3772" />
    <linearGradient
       id="linearGradient3632">
      <stop
         style="stop-color:#6a583a;stop-opacity:1;"
         offset="0"
         id="stop3634" />
      <stop
         id="stop3603"
         offset="0.5"
         style="stop-color:#45351d;stop-opacity:1;" />
      <stop
         style="stop-color:#201300;stop-opacity:1;"
         offset="1"
         id="stop3636" />
    </linearGradient>
    <filter
       color-interpolation-filters="sRGB"
       inkscape:collect="always"
       id="filter3716">
      <feGaussianBlur
         inkscape:collect="always"
         stdDeviation="19.746404"
         id="feGaussianBlur3718" />
    </filter>
    <radialGradient
       inkscape:collect="always"
       xlink:href="#linearGradient3605"
       id="radialGradient2828"
       gradientUnits="userSpaceOnUse"
       gradientTransform="matrix(1.3004328,-5.8417052e-8,5.3026441e-8,0.97928618,-1861.2866,1135.8078)"
       cx="1583.6582"
       cy="-349.33905"
       fx="1583.6582"
       fy="-349.33905"
       r="316.3772" />
    <inkscape:perspective
       id="perspective3628"
       inkscape:persp3d-origin="0.5 : 0.33333333 : 1"
       inkscape:vp_z="1 : 0.5 : 1"
       inkscape:vp_y="0 : 1000 : 0"
       inkscape:vp_x="0 : 0.5 : 1"
       sodipodi:type="inkscape:persp3d" />
    <inkscape:perspective
       id="perspective3654"
       inkscape:persp3d-origin="0.5 : 0.33333333 : 1"
       inkscape:vp_z="1 : 0.5 : 1"
       inkscape:vp_y="0 : 1000 : 0"
       inkscape:vp_x="0 : 0.5 : 1"
       sodipodi:type="inkscape:persp3d" />
    <inkscape:perspective
       id="perspective3683"
       inkscape:persp3d-origin="0.5 : 0.33333333 : 1"
       inkscape:vp_z="1 : 0.5 : 1"
       inkscape:vp_y="0 : 1000 : 0"
       inkscape:vp_x="0 : 0.5 : 1"
       sodipodi:type="inkscape:persp3d" />
    <inkscape:perspective
       id="perspective3705"
       inkscape:persp3d-origin="0.5 : 0.33333333 : 1"
       inkscape:vp_z="1 : 0.5 : 1"
       inkscape:vp_y="0 : 1000 : 0"
       inkscape:vp_x="0 : 0.5 : 1"
       sodipodi:type="inkscape:persp3d" />
  </defs>
  <sodipodi:namedview
     id="base"
     pagecolor="#ffffff"
     bordercolor="#666666"
     borderopacity="1.0"
     inkscape:pageopacity="0.0"
     inkscape:pageshadow="2"
     inkscape:zoom="0.7"
     inkscape:cx="212.14384"
     inkscape:cy="342.98752"
     inkscape:document-units="px"
     inkscape:current-layer="layer1"
     showgrid="false"
     inkscape:window-width="936"
     inkscape:window-height="742"
     inkscape:window-x="75"
     inkscape:window-y="113"
     inkscape:window-maximized="0" />
  <metadata
     id="metadata3751">
    <rdf:RDF>
      <cc:Work
         rdf:about="">
        <dc:format>image/svg+xml</dc:format>
        <dc:type
           rdf:resource="http://purl.org/dc/dcmitype/StillImage" />
        <dc:title></dc:title>
      </cc:Work>
    </rdf:RDF>
  </metadata>
  <g
     inkscape:label="Calque 1"
     inkscape:groupmode="layer"
     id="layer1"
     transform="translate(0,-652.36218)">
    <rect
       style="fill:#2b2b2b;fill-opacity:1;stroke:none;filter:url(#filter3716)"
       id="rect3622-8"
       width="564.18298"
       height="564.18298"
       x="1487.4148"
       y="-421.80658"
       ry="177.99525"
       transform="matrix(0.60701185,0,0,0.60701185,-872.84331,938.76012)" />
    <rect
       style="fill:url(#radialGradient2828);fill-opacity:1;stroke:#000000;stroke-width:0.90275793999999998;stroke-miterlimit:4;stroke-opacity:1;stroke-dasharray:none"
       id="rect3622"
       width="343.53448"
       height="343.53448"
       x="26.387089"
       y="677.78064"
       ry="108.38241" />
    <path
       style="fill:#152313;fill-opacity:1;stroke:none"
       d="m 172.9578,696.20593 c -0.62369,-0.002 -1.21121,0.0438 -1.78125,0.0937 -11.01236,1.00985 -21.59358,5.0522 -30.75,11.125 -0.83608,0.45921 -2.86543,1.1312 -4.5,2.03125 -4.55506,2.98766 -7.167,8.29916 -11.78125,11.09375 -3.67049,0.36023 -7.26398,-1.06215 -10.6875,-1.53125 -5.30447,1.38375 -9.57129,6.29834 -9.375,11.9375 -14.528853,0.51457 -27.819811,8.22188 -38.468744,17.5625 -4.829433,4.61462 -9.667259,13.90955 -8.84375,17.5625 1.175971,3.66709 7.080338,8.27852 10.9375,6.4375 4.271529,-1.45442 10.096101,-4.48905 12.5625,-5.875 7.444336,-3.69219 15.344787,-6.94537 21.687494,-12.4375 2.05751,-2.25421 3.94334,-4.32845 6.0625,-6.4375 2.11916,-2.10905 4.23772,-3.6667 6.71875,-2.9375 3.90875,6.28874 1.36108,14.21283 -2.5625,19.84375 -8.05492,12.00563 -20.278105,22.73408 -22.093744,37.78125 -0.769473,5.25952 1.738372,10.7165 -0.5625,15.78125 -2.165458,7.34702 -3.93754,14.77223 -3.96875,22.46875 -0.374644,6.64858 1.151785,13.57178 5.4375,18.75 0.677197,2.76973 -0.23532,5.70752 0.78125,8.4375 0.381738,10.25411 -2.500756,20.33367 -5.53125,30.03125 -3.797,11.9055 -9.146615,23.4521 -11.53125,35.75 1.351929,4.58111 170.546784,70.62867 173.906194,69.43747 3.34304,2.3904 8.08744,-2.0695 5.65625,-5.53122 -4.71117,-9.81089 -14.27208,-17.12024 -16.21875,-28.21875 -4.51991,-17.98751 1.27161,-36.91246 9.9375,-52.71875 1.97781,-0.24267 4.46451,0.59755 6.625,0.40625 30.07971,0.48539 60.3863,-10.1877 82.75,-30.34375 13.42982,-14.26576 11.9626,-40.41214 -4.375,-51.84375 -7.38585,-5.41726 -16.87412,-6.34073 -25.78125,-6.6875 -17.85623,-2.95361 -32.52789,-15.97955 -41.3125,-31.40625 -3.49516,-5.88177 -13.53407,-13.0236 -9.375,-18.53125 4.15914,-5.50764 25.92794,-9.33723 35.0625,-16.6875 2.14314,-1.81518 3.86218,-4.01727 5.28125,-6.4375 -1.05752,-0.68567 0.10779,-2.69544 -0.8125,-3.9375 -2.40295,-6.52674 -13.87098,-7.15012 -19.75,-9.1875 -5.87018,-1.20546 -11.82881,1.18475 -17.75,0.15625 -4.81112,-0.25495 -9.37112,1.71509 -14.0625,1.96875 -4.59529,-0.87841 -8.01164,-4.54068 -12.3125,-6.25 -2.84756,-2.55009 -4.01092,-7.4798 -8.40625,-7.875 -17.32361,-5.05066 -35.67121,-3.59206 -53.53125,-3.875 -11.64996,1.53676 -23.057,5.31042 -33.28125,11 -0.71308,0.72458 -0.92013,1.5888 -0.78125,2.40625 -2.62044,-0.41678 -5.79472,-0.0506 -7.6875,-2.09375 0.20286,-2.33645 3.44774,-3.08568 5.125,-4.25 11.15306,-5.76214 24.15942,-7.25598 35,-13.5625 5.54455,-4.72544 13.22123,-9.0916 14.34375,-16.9375 -0.36883,-4.98339 -5.63417,-6.45134 -10,-6.46875 l 5e-5,0 0,5e-5 z"
       id="path3615-17"
       sodipodi:nodetypes="ccccccccccccsccccccccccccccccccscccccccccccccccccc" />
    <path
       style="fill:#381fff;fill-opacity:0;stroke:none"
       d="m 176.4563,699.57151 c -0.62369,-0.003 -1.21121,0.0438 -1.78125,0.0937 -11.01236,1.00985 -21.59357,5.0522 -30.74999,11.125 -0.83608,0.45921 -2.86543,1.1312 -4.5,2.03125 -4.55506,2.98766 -7.167,8.29916 -11.78125,11.09375 -3.67049,0.36023 -7.26398,-1.06215 -10.6875,-1.53125 -5.30447,1.38375 -9.57129,6.29834 -9.375,11.9375 -14.528862,0.51457 -27.81982,8.22188 -38.468753,17.5625 -4.829433,4.61462 -9.667259,13.90955 -8.84375,17.5625 1.175971,3.66709 7.080338,8.27852 10.9375,6.4375 4.271529,-1.45442 10.096101,-4.48905 12.5625,-5.875 7.444336,-3.69219 15.344787,-6.94537 21.687503,-12.4375 2.05751,-2.25421 3.94334,-4.32845 6.0625,-6.4375 2.11916,-2.10905 4.23772,-3.6667 6.71875,-2.9375 3.90875,6.28874 1.36108,14.21283 -2.5625,19.84375 -8.05492,12.00563 -20.278114,22.73408 -22.093753,37.78125 -0.769473,5.25952 1.738372,10.7165 -0.5625,15.78125 -2.165458,7.34702 -3.93754,14.77223 -3.96875,22.46875 -0.374644,6.64858 1.151785,13.57178 5.4375,18.75 0.677197,2.76973 -0.23532,5.70752 0.78125,8.4375 0.381738,10.25411 -2.500756,20.33367 -5.53125,30.03125 -3.797,11.9055 -9.146615,23.4521 -11.53125,35.75 47.818943,45.99736 84.683823,44.36482 173.906193,69.43749 3.34304,2.3904 8.08744,-2.0695 5.65625,-5.5312 -4.71117,-9.81093 -14.27208,-17.12028 -16.21875,-28.21879 -4.51991,-17.98751 1.27161,-36.91246 9.9375,-52.71875 1.97781,-0.24267 4.46451,0.59755 6.625,0.40625 30.07971,0.48539 60.3863,-10.1877 82.75,-30.34375 13.42982,-14.26576 11.9626,-40.41214 -4.375,-51.84375 -7.38585,-5.41726 -16.87412,-6.34073 -25.78125,-6.6875 -17.85623,-2.95361 -32.52789,-15.97955 -41.3125,-31.40625 -3.49516,-5.88177 -13.53407,-13.0236 -9.375,-18.53125 4.15914,-5.50764 25.92794,-9.33723 35.0625,-16.6875 2.14314,-1.81518 3.86218,-4.01727 5.28125,-6.4375 -1.05752,-0.68567 0.10779,-2.69544 -0.8125,-3.9375 -2.40295,-6.52674 -13.87098,-7.15012 -19.75,-9.1875 -5.87018,-1.20546 -11.82881,1.18475 -17.75,0.15625 -4.81112,-0.25495 -9.37112,1.71509 -14.0625,1.96875 -4.59529,-0.87841 -8.01164,-4.54068 -12.3125,-6.25 -2.84756,-2.55009 -4.01092,-7.4798 -8.40625,-7.875 -17.32361,-5.05066 -35.67121,-3.59206 -53.53125,-3.875 -11.64996,1.53676 -23.05699,5.31042 -33.28124,11 -0.71308,0.72458 -0.92013,1.58881 -0.78125,2.40625 -2.62044,-0.41678 -5.79472,-0.0506 -7.6875,-2.09375 0.20286,-2.33645 3.44774,-3.08568 5.125,-4.25 11.15306,-5.76214 24.15941,-7.25598 34.99999,-13.5625 5.54455,-4.72544 13.22123,-9.0916 14.34375,-16.9375 -0.36883,-4.98339 -5.63417,-6.45134 -10,-6.46875 l 5e-5,0 0,5e-5 z"
       id="path3615-17-9"
       sodipodi:nodetypes="ccccccccccccsccccccccccccccccccscccccccccccccccccc" />
    <path
       style="fill:#61a159;fill-opacity:1;stroke:none"
       d="m 172.41569,693.51057 c -0.62369,-0.002 -1.21121,0.0438 -1.78125,0.0937 -11.01236,1.00985 -21.59358,5.0522 -30.75,11.125 -0.83608,0.45921 -2.86543,1.1312 -4.5,2.03125 -4.55506,2.98766 -7.167,8.29916 -11.78125,11.09375 -3.67049,0.36023 -7.26398,-1.06215 -10.6875,-1.53125 -5.30447,1.38375 -9.57129,6.29834 -9.375,11.9375 -14.528853,0.51457 -27.819811,8.22188 -38.468744,17.5625 -4.829433,4.61462 -9.667259,13.90955 -8.84375,17.5625 1.175971,3.66709 7.080338,8.27852 10.9375,6.4375 4.271529,-1.45442 10.096101,-4.48905 12.5625,-5.875 7.444336,-3.69219 15.344787,-6.94537 21.687494,-12.4375 2.05751,-2.25421 3.94334,-4.32845 6.0625,-6.4375 2.11916,-2.10905 4.23772,-3.6667 6.71875,-2.9375 3.90875,6.28874 1.36108,14.21283 -2.5625,19.84375 -8.05492,12.00563 -20.278105,22.73408 -22.093744,37.78125 -0.769473,5.25952 1.738372,10.7165 -0.5625,15.78125 -2.165458,7.34702 -3.93754,14.77223 -3.96875,22.46875 -0.374644,6.64858 1.151785,13.57178 5.4375,18.75 0.677197,2.76973 -0.23532,5.70752 0.78125,8.4375 0.381738,10.25411 -2.500756,20.33367 -5.53125,30.03125 -3.797,11.9055 -9.146615,23.4521 -11.53125,35.75 1.351929,4.58111 170.546784,70.62863 173.906194,69.43743 3.34304,2.3904 8.08744,-2.06946 5.65625,-5.53118 -4.71117,-9.81089 -14.27208,-17.12024 -16.21875,-28.21875 -4.51991,-17.98751 1.27161,-36.91246 9.9375,-52.71875 1.97781,-0.24267 4.46451,0.59755 6.625,0.40625 30.07971,0.48539 60.3863,-10.1877 82.75,-30.34375 13.42982,-14.26576 11.9626,-40.41214 -4.375,-51.84375 -7.38585,-5.41726 -16.87412,-6.34073 -25.78125,-6.6875 -17.85623,-2.95361 -32.52789,-15.97955 -41.3125,-31.40625 -3.49516,-5.88177 -13.53407,-13.0236 -9.375,-18.53125 4.15914,-5.50764 25.92794,-9.33723 35.0625,-16.6875 2.14314,-1.81518 3.86218,-4.01727 5.28125,-6.4375 -1.05752,-0.68567 0.10779,-2.69544 -0.8125,-3.9375 -2.40295,-6.52674 -13.87098,-7.15012 -19.75,-9.1875 -5.87018,-1.20546 -11.82881,1.18475 -17.75,0.15625 -4.81112,-0.25495 -9.37112,1.71509 -14.0625,1.96875 -4.59529,-0.87841 -8.01164,-4.54068 -12.3125,-6.25 -2.84756,-2.55009 -4.01092,-7.4798 -8.40625,-7.875 -17.32361,-5.05066 -35.67121,-3.59206 -53.53125,-3.875 -11.64996,1.53676 -23.057,5.31042 -33.28125,11 -0.71308,0.72458 -0.92013,1.5888 -0.78125,2.40625 -2.62044,-0.41678 -5.79472,-0.0506 -7.6875,-2.09375 0.20286,-2.33645 3.44774,-3.08568 5.125,-4.25 11.15306,-5.76214 24.15942,-7.25598 35,-13.5625 5.54455,-4.72544 13.22123,-9.0916 14.34375,-16.9375 -0.36883,-4.98339 -5.63417,-6.45134 -10,-6.46875 l 5e-5,0 0,5e-5 z"
       id="path3615-17-4"
       sodipodi:nodetypes="ccccccccccccsccccccccccccccccccscccccccccccccccccc" />
  </g>
</svg>
